name C:\Users\u0101727\Documents\MyRepositories\upper-imu-dc\OpenSim\subject0\MA\MA_Splines\angle_in_n6_dof6_2.mot
datacolumns 7
datarows 40
range 200.01000000 200.40000000
endheader 
time	clav_prot	clav_elev	scapula_abduction	scapula_elevation	scapula_upward_rot	scapula_winging	
        200.01000000	        -36.17913537	          7.05722688	         -8.18913718	         -1.85741863	         54.58874201	         -7.41021064	
        200.02000000	        -29.75473540	          7.05722688	         -8.18913718	         -1.85741863	         54.58874201	         -7.41021064	
        200.03000000	        -23.33033544	          7.05722688	         -8.18913718	         -1.85741863	         54.58874201	         -7.41021064	
        200.04000000	        -16.90593547	          7.05722688	         -8.18913718	         -1.85741863	         54.58874201	         -7.41021064	
        200.05000000	        -49.02793530	         11.96046367	         -8.18913718	         -1.85741863	         54.58874201	         -7.41021064	
        200.06000000	        -42.60353533	         11.96046367	         -8.18913718	         -1.85741863	         54.58874201	         -7.41021064	
        200.07000000	        -36.17913537	         11.96046367	         -8.18913718	         -1.85741863	         54.58874201	         -7.41021064	
        200.08000000	        -29.75473540	         11.96046367	         -8.18913718	         -1.85741863	         54.58874201	         -7.41021064	
        200.09000000	        -23.33033544	         11.96046367	         -8.18913718	         -1.85741863	         54.58874201	         -7.41021064	
        200.10000000	        -16.90593547	         11.96046367	         -8.18913718	         -1.85741863	         54.58874201	         -7.41021064	
        200.11000000	        -49.02793530	         16.86370047	         -8.18913718	         -1.85741863	         54.58874201	         -7.41021064	
        200.12000000	        -42.60353533	         16.86370047	         -8.18913718	         -1.85741863	         54.58874201	         -7.41021064	
        200.13000000	        -36.17913537	         16.86370047	         -8.18913718	         -1.85741863	         54.58874201	         -7.41021064	
        200.14000000	        -29.75473540	         16.86370047	         -8.18913718	         -1.85741863	         54.58874201	         -7.41021064	
        200.15000000	        -23.33033544	         16.86370047	         -8.18913718	         -1.85741863	         54.58874201	         -7.41021064	
        200.16000000	        -16.90593547	         16.86370047	         -8.18913718	         -1.85741863	         54.58874201	         -7.41021064	
        200.17000000	        -49.02793530	         -7.65248351	          1.54938583	         -1.85741863	         54.58874201	         -7.41021064	
        200.18000000	        -42.60353533	         -7.65248351	          1.54938583	         -1.85741863	         54.58874201	         -7.41021064	
        200.19000000	        -36.17913537	         -7.65248351	          1.54938583	         -1.85741863	         54.58874201	         -7.41021064	
        200.20000000	        -29.75473540	         -7.65248351	          1.54938583	         -1.85741863	         54.58874201	         -7.41021064	
        200.21000000	        -23.33033544	         -7.65248351	          1.54938583	         -1.85741863	         54.58874201	         -7.41021064	
        200.22000000	        -16.90593547	         -7.65248351	          1.54938583	         -1.85741863	         54.58874201	         -7.41021064	
        200.23000000	        -49.02793530	         -2.74924671	          1.54938583	         -1.85741863	         54.58874201	         -7.41021064	
        200.24000000	        -42.60353533	         -2.74924671	          1.54938583	         -1.85741863	         54.58874201	         -7.41021064	
        200.25000000	        -36.17913537	         -2.74924671	          1.54938583	         -1.85741863	         54.58874201	         -7.41021064	
        200.26000000	        -29.75473540	         -2.74924671	          1.54938583	         -1.85741863	         54.58874201	         -7.41021064	
        200.27000000	        -23.33033544	         -2.74924671	          1.54938583	         -1.85741863	         54.58874201	         -7.41021064	
        200.28000000	        -16.90593547	         -2.74924671	          1.54938583	         -1.85741863	         54.58874201	         -7.41021064	
        200.29000000	        -49.02793530	          2.15399008	          1.54938583	         -1.85741863	         54.58874201	         -7.41021064	
        200.30000000	        -42.60353533	          2.15399008	          1.54938583	         -1.85741863	         54.58874201	         -7.41021064	
        200.31000000	        -36.17913537	          2.15399008	          1.54938583	         -1.85741863	         54.58874201	         -7.41021064	
        200.32000000	        -29.75473540	          2.15399008	          1.54938583	         -1.85741863	         54.58874201	         -7.41021064	
        200.33000000	        -23.33033544	          2.15399008	          1.54938583	         -1.85741863	         54.58874201	         -7.41021064	
        200.34000000	        -16.90593547	          2.15399008	          1.54938583	         -1.85741863	         54.58874201	         -7.41021064	
        200.35000000	        -49.02793530	          7.05722688	          1.54938583	         -1.85741863	         54.58874201	         -7.41021064	
        200.36000000	        -42.60353533	          7.05722688	          1.54938583	         -1.85741863	         54.58874201	         -7.41021064	
        200.37000000	        -36.17913537	          7.05722688	          1.54938583	         -1.85741863	         54.58874201	         -7.41021064	
        200.38000000	        -29.75473540	          7.05722688	          1.54938583	         -1.85741863	         54.58874201	         -7.41021064	
        200.39000000	        -23.33033544	          7.05722688	          1.54938583	         -1.85741863	         54.58874201	         -7.41021064	
        200.40000000	        -16.90593547	          7.05722688	          1.54938583	         -1.85741863	         54.58874201	         -7.41021064	
